<svg xmlns="http://www.w3.org/2000/svg" viewBox="0 0 18.1 18.13"><defs><style>.a{fill:none;stroke:#000;stroke-miterlimit:10;}</style></defs><title>Artboard 2 copy 2</title><path class="a" d="M17.52,9.06A8.47,8.47,0,1,1,9.05.6,8.47,8.47,0,0,1,17.52,9.06Z"/><path d="M12.34,4.31H5.88A1.51,1.51,0,0,0,4.3,5.76v6.46a1.63,1.63,0,0,0,1.58,1.59h4c0-1.24,0-2.63,0-3.83l-.77,0V8.67h.77c0-.41,0-.83,0-1.24a1.36,1.36,0,0,1,.4-.89,1.68,1.68,0,0,1,1.12-.39h1.26V7.47h-.82a.38.38,0,0,0-.38.29v.89h1.2c0,.43-.09.85-.15,1.28-.35,0-.7,0-1.06,0,0,1.2,0,2.59,0,3.83h.89a1.53,1.53,0,0,0,1.46-1.59V5.76A1.41,1.41,0,0,0,12.34,4.31Z"/></svg>