<svg xmlns="http://www.w3.org/2000/svg" xmlns:xlink="http://www.w3.org/1999/xlink" viewBox="0 0 18.1 18.13"><defs><style>.a,.b{fill:none;}.b{stroke:#000;stroke-miterlimit:10;}.c{clip-path:url(#a);}</style><clipPath id="a"><rect class="a" x="4.09" y="4.1" width="9.93" height="9.93"/></clipPath></defs><title>Artboard 2 copy</title><path class="b" d="M17.52,9.06A8.47,8.47,0,1,1,9.05.6,8.47,8.47,0,0,1,17.52,9.06Z"/><g class="c"><path d="M9.05,5c1.33,0,1.48,0,2,0a3,3,0,0,1,.92.17,1.56,1.56,0,0,1,.57.37,1.6,1.6,0,0,1,.37.58,2.58,2.58,0,0,1,.17.92c0,.52,0,.68,0,2s0,1.48,0,2a2.69,2.69,0,0,1-.17.92,1.63,1.63,0,0,1-.94.94,2.69,2.69,0,0,1-.92.17c-.53,0-.68,0-2,0s-1.48,0-2,0a2.58,2.58,0,0,1-.92-.17,1.6,1.6,0,0,1-.58-.37A1.56,1.56,0,0,1,5.18,12,3,3,0,0,1,5,11.07c0-.53,0-.68,0-2s0-1.48,0-2a2.83,2.83,0,0,1,.17-.92,1.59,1.59,0,0,1,1-.95A2.83,2.83,0,0,1,7.05,5c.52,0,.68,0,2,0m0-.89c-1.35,0-1.51,0-2,0a3.66,3.66,0,0,0-1.21.23,2.56,2.56,0,0,0-.88.57,2.37,2.37,0,0,0-.57.88A3.66,3.66,0,0,0,4.12,7c0,.53,0,.7,0,2s0,1.52,0,2a3.54,3.54,0,0,0,.23,1.2,2.23,2.23,0,0,0,.57.88,2.45,2.45,0,0,0,.88.58A3.93,3.93,0,0,0,7,14c.53,0,.69,0,2,0s1.52,0,2,0a3.8,3.8,0,0,0,1.2-.23,2.37,2.37,0,0,0,.88-.58,2.23,2.23,0,0,0,.57-.88,3.31,3.31,0,0,0,.23-1.2c0-.53,0-.7,0-2s0-1.51,0-2a3.42,3.42,0,0,0-.23-1.21,2.37,2.37,0,0,0-.57-.88,2.47,2.47,0,0,0-.88-.57,3.54,3.54,0,0,0-1.2-.23c-.53,0-.7,0-2,0"/></g><g class="c"><path d="M9.05,6.52A2.55,2.55,0,1,0,11.6,9.06,2.54,2.54,0,0,0,9.05,6.52m0,4.2a1.66,1.66,0,1,1,1.66-1.66,1.65,1.65,0,0,1-1.66,1.66"/></g><g class="c"><path d="M12.3,6.41a.6.6,0,0,1-.6.6.59.59,0,0,1-.59-.6.58.58,0,0,1,.59-.59.59.59,0,0,1,.6.59"/></g></svg>