<svg xmlns="http://www.w3.org/2000/svg" viewBox="0 0 234 243.33"><title>logo</title><path d="M113.63,153.54s-16.17,3-19.95,3.57-22.85,3.46-22.85,3.46,32-9.49,34.38-10.25a5,5,0,0,0,3.63-4.44c.09-1.83,0-3.67,0-4.79s-1.33-2.81-2.4-3.88-10.54-9.41-12-10.87-2.19-2.7-3.52-5.92-10.87-33.92-12.09-38-4.8-20-11.68-24.57S50.67,49.38,43.53,45.6,21.42,32.24,21.42,32.24c3.75,2.64,31.26,12,44.65,15.14,9,2.13,9.41,6.88,11,12.86s13.21,46.92,15.15,53.19,8.65,6.46,8.65,6.46h25.61s6.71-.17,8.64-6.45,13.59-47.23,15.16-53.2,2-10.72,11-12.86c13.39-3.17,40.9-12.5,44.65-15.14,0,0-15,9.59-22.12,13.37s-16.59,7.59-23.63,12.23c-6.87,4.53-10.45,20.5-11.67,24.58s-10.77,34.8-12.09,38-2.07,4.46-3.53,5.92-10.91,9.79-12,10.86-2.4,2.76-2.4,3.88-.1,3,0,4.8a5,5,0,0,0,3.62,4.44c2.35.76,34.39,10.25,34.39,10.25l-22.86-3.47c-3.77-.56-20-3.57-20-3.57Z"/><path d="M8.32,20.05A404.51,404.51,0,0,1,60.26,6.58,259.78,259.78,0,0,1,114,2a290,290,0,0,1,53.48,6.54,391.25,391.25,0,0,1,51.53,15C201.54,19.67,184.12,16,166.62,13a379.77,379.77,0,0,0-52.78-5.2A326.65,326.65,0,0,0,61,11.05C43.4,13.46,25.88,16.75,8.32,20.05Z"/><path d="M229.33,36.62a308.6,308.6,0,0,1-10.28,50.92,232.32,232.32,0,0,1-20.13,48.17,234,234,0,0,1-30.73,42.21,311.74,311.74,0,0,1-38.12,35.29c12-12.42,23.77-25,34.68-38.26a290.81,290.81,0,0,0,29.1-42.1,287.15,287.15,0,0,0,20.89-46.7C220.37,70,225,53.37,229.33,36.62Z"/><path d="M136.6,241.49a240.54,240.54,0,0,1-52.42-34.34,213.4,213.4,0,0,1-41.07-47.78,234,234,0,0,1-25.69-57.5A311,311,0,0,1,5.94,40.27a480.72,480.72,0,0,0,15.81,60.21A268.26,268.26,0,0,0,48,156.28a239.79,239.79,0,0,0,39.18,47.51A327.09,327.09,0,0,0,136.6,241.49Z"/></svg>